HIERARCHY
ROOT Hips
{
	OFFSET -0.001795 -0.223333 0.028219
	CHANNELS 6 Xposition Yposition Zposition Zrotation Yrotation Xrotation 
	JOINT LeftUpLeg
	{
		OFFSET 0.069520 -0.091406 -0.006815
		CHANNELS 3 Zrotation Yrotation Xrotation
		JOINT LeftLeg
		{
			OFFSET 0.034277 -0.375199 -0.004496
			CHANNELS 3 Zrotation Yrotation Xrotation
			JOINT LeftFoot
			{
				OFFSET -0.013596 -0.397961 -0.043693
				CHANNELS 3 Zrotation Yrotation Xrotation
				JOINT LeftToe
				{
					OFFSET 0.026358 -0.055791 0.119288
					CHANNELS 3 Zrotation Yrotation Xrotation
					End Site
					{
						OFFSET 0.000000 0.000000 0.000000
					}
				}
			}
		}
	}
	JOINT RightUpLeg
	{
		OFFSET -0.067670 -0.090522 -0.004320
		CHANNELS 3 Zrotation Yrotation Xrotation
		JOINT RightLeg
		{
			OFFSET -0.038290 -0.382569 -0.008850
			CHANNELS 3 Zrotation Yrotation Xrotation
			JOINT RightFoot
			{
				OFFSET 0.015774 -0.398415 -0.042312
				CHANNELS 3 Zrotation Yrotation Xrotation
				JOINT RightToe
				{
					OFFSET -0.025372 -0.048144 0.123348
					CHANNELS 3 Zrotation Yrotation Xrotation
					End Site
					{
						OFFSET 0.000000 0.000000 0.000000
					}
				}
			}
		}
	}
	JOINT Spine
	{
		OFFSET -0.002533 0.108963 -0.026696
		CHANNELS 3 Zrotation Yrotation Xrotation
		JOINT Spine1
		{
			OFFSET 0.005487 0.135180 0.001092
			CHANNELS 3 Zrotation Yrotation Xrotation
			JOINT Spine2
			{
				OFFSET 0.001457 0.052922 0.025425
				CHANNELS 3 Zrotation Yrotation Xrotation
				JOINT Neck
				{
					OFFSET -0.002778 0.213870 -0.042857
					CHANNELS 3 Zrotation Yrotation Xrotation
					JOINT Head
					{
						OFFSET 0.005152 0.064970 0.051349
						CHANNELS 3 Zrotation Yrotation Xrotation
						End Site
						{
							OFFSET 0.000000 0.000000 0.000000
						}
					}
				}
				JOINT LeftShoulder
				{
					OFFSET 0.078845 0.121749 -0.034090
					CHANNELS 3 Zrotation Yrotation Xrotation
					JOINT LeftArm
					{
						OFFSET 0.090977 0.030469 -0.008868
						CHANNELS 3 Zrotation Yrotation Xrotation
						JOINT LeftForeArm
						{
							OFFSET 0.259612 -0.012772 -0.027456
							CHANNELS 3 Zrotation Yrotation Xrotation
							JOINT LeftHand
							{
								OFFSET 0.249234 0.008986 -0.001171
								CHANNELS 3 Zrotation Yrotation Xrotation
								End Site
								{
									OFFSET 0.000000 0.000000 0.000000
								}
							}
						}
					}
				}
				JOINT RightShoulder
				{
					OFFSET -0.081759 0.118833 -0.038615
					CHANNELS 3 Zrotation Yrotation Xrotation
					JOINT RightArm
					{
						OFFSET -0.096012 0.032551 -0.009143
						CHANNELS 3 Zrotation Yrotation Xrotation
						JOINT RightForeArm
						{
							OFFSET -0.253742 -0.013329 -0.021401
							CHANNELS 3 Zrotation Yrotation Xrotation
							JOINT RightHand
							{
								OFFSET -0.255298 0.007772 -0.005559
								CHANNELS 3 Zrotation Yrotation Xrotation
								End Site
								{
									OFFSET 0.000000 0.000000 0.000000
								}
							}
						}
					}
				}
			}
		}
	}
}
MOTION
Frames: 7
Frame Time: 0.050000
0.000000 0.947142 0.000000 -1.998260 0.467487 5.738197 6.582427 -0.282909 -3.216008 3.406612 -0.221274 -2.229483 5.026740 13.728436 19.042090 0.000000 0.000000 0.000000 -3.776378 0.486282 -5.192761 -1.422832 0.057401 -1.760590 -0.912124 -8.170532 17.897042 0.000000 0.000000 0.000000 1.791828 0.119333 -2.992107 -0.692044 0.365391 -1.898570 -0.366873 0.391145 -0.522650 2.855230 -1.278151 -8.109351 0.000000 0.000000 0.000000 -19.189125 2.124199 -3.326007 -54.640647 -3.793634 -4.251226 -9.102228 -20.767074 2.358212 0.000000 0.000000 0.000000 18.226217 -3.542020 -3.564054 59.454126 4.728229 -2.862932 5.438031 19.437148 1.443420 0.000000 0.000000 0.000000 
0.000133 0.945534 0.000705 -2.155137 -0.960019 6.263782 6.382945 -0.252166 -2.662434 3.792402 -0.177733 -3.486813 5.852975 14.686328 19.244539 0.000000 0.000000 0.000000 -4.250337 0.548336 -5.977840 -0.516462 -0.024974 -1.752349 -0.300505 -7.253417 17.354654 0.000000 0.000000 0.000000 1.974391 0.142767 -3.383522 -1.481196 0.713899 -1.975152 0.503583 0.550342 -0.865504 2.095582 -0.738471 -8.801585 0.000000 0.000000 0.000000 -20.482934 3.513314 -4.075143 -54.039656 -3.824190 -4.172636 -9.824673 -20.735931 2.517649 0.000000 0.000000 0.000000 17.372881 -4.009327 -3.874083 60.418749 4.248132 -3.114861 5.327891 19.605227 1.404207 0.000000 0.000000 0.000000 
0.000227 0.945158 0.001119 -1.833096 -0.291114 5.955991 6.290970 -0.248399 -2.437822 3.449512 -0.143967 -3.548318 5.472502 14.222384 18.933016 0.000000 0.000000 0.000000 -4.572336 0.534964 -5.984263 -0.489600 0.012459 -0.866798 -0.724655 -7.764434 17.000699 0.000000 0.000000 0.000000 1.660099 0.108785 -2.787935 -0.907666 0.490650 -3.830923 0.053946 -0.223250 0.063259 1.610393 -0.504184 -8.110583 0.000000 0.000000 0.000000 -20.120384 3.423174 -3.869926 -54.287764 -3.404177 -4.484370 -9.795400 -20.600295 2.519587 0.000000 0.000000 0.000000 18.575692 -3.034782 -3.589873 58.791233 3.852697 -3.312177 4.595960 19.227380 1.264292 0.000000 0.000000 0.000000 
0.000237 0.944699 0.001537 -2.090256 -0.519565 6.434019 6.589471 -0.265393 -2.785619 3.388475 -0.131039 -3.686654 5.667724 14.452555 18.892699 0.000000 0.000000 0.000000 -4.488571 0.608874 -7.043518 -0.186703 0.021726 0.061254 -0.691919 -7.696718 16.801591 0.000000 0.000000 0.000000 1.597707 0.122961 -3.068081 -1.341969 0.672132 -3.645636 1.312564 -1.202671 -0.724620 0.747118 -0.033370 -7.489078 0.000000 0.000000 0.000000 -20.037199 4.956716 -4.377190 -55.278742 -3.625185 -4.420083 -9.244745 -20.401397 2.446847 0.000000 0.000000 0.000000 17.202263 -2.977242 -3.680522 59.307413 3.511521 -3.437371 5.264211 19.134780 1.296155 0.000000 0.000000 0.000000 
0.000147 0.944766 0.001888 -1.955689 -0.030415 6.262646 6.477675 -0.266534 -2.695723 3.428845 -0.131118 -3.694393 5.381873 14.112521 18.782311 0.000000 0.000000 0.000000 -4.562407 0.582533 -6.748447 -0.232060 0.027002 0.070844 -0.933460 -8.025812 16.803061 0.000000 0.000000 0.000000 1.269551 0.111625 -2.845501 -0.829540 0.458568 -3.770291 1.099941 -1.503358 -0.600861 0.378985 0.245808 -7.912615 0.000000 0.000000 0.000000 -19.942762 4.769058 -4.262617 -55.349919 -4.138576 -4.204754 -9.416825 -19.672846 2.385007 0.000000 0.000000 0.000000 17.315530 -3.163541 -3.785554 59.071667 3.787865 -3.296799 5.566888 18.405888 1.287620 0.000000 0.000000 0.000000 
0.000100 0.944895 0.002162 -1.971922 -0.110901 6.458474 6.487083 -0.273726 -2.851477 3.433512 -0.129328 -3.730713 5.426115 14.172879 18.877411 0.000000 0.000000 0.000000 -4.509450 0.602306 -7.005502 -0.305130 0.037955 0.151234 -0.901703 -7.994377 16.839259 0.000000 0.000000 0.000000 1.019007 0.117218 -2.943119 -0.730438 0.418136 -3.934970 1.570945 -1.839968 -0.494029 0.302756 0.245656 -7.510325 0.000000 0.000000 0.000000 -19.874524 5.199062 -4.367813 -55.616326 -4.444172 -4.101946 -9.360056 -19.197894 2.335516 0.000000 0.000000 0.000000 16.406351 -2.969213 -3.633294 59.533190 3.866053 -3.319752 5.592782 18.013259 1.246426 0.000000 0.000000 0.000000 
0.000055 0.944931 0.002233 -1.903045 0.173160 6.529111 6.421974 -0.283044 -2.981660 3.476418 -0.129481 -3.755325 5.271785 13.994277 18.846278 0.000000 0.000000 0.000000 -4.290008 0.597916 -6.885757 -0.785205 0.077169 -0.094866 -1.039951 -8.198160 16.898555 0.000000 0.000000 0.000000 0.862615 0.110814 -2.815142 -0.564768 0.346752 -3.787375 1.550104 -2.271058 -0.717625 0.325155 0.251745 -8.036802 0.000000 0.000000 0.000000 -19.591470 5.336499 -4.348879 -55.634528 -4.374072 -4.112847 -9.924721 -19.237804 2.442870 0.000000 0.000000 0.000000 16.204278 -2.914163 -3.629232 59.563103 3.745474 -3.366958 5.688059 17.699952 1.225895 0.000000 0.000000 0.000000 
